<svg width="160" height="160" viewBox="0 0 160 160" fill="none" xmlns="http://www.w3.org/2000/svg">
<g clip-path="url(#clip0_5096_18340)">
<path d="M160 0H0V160H160V0Z" fill="white"/>
<path d="M14.8276 10H10V14.8276H14.8276V10Z" fill="black"/>
<path d="M19.6552 10H14.8276V14.8276H19.6552V10Z" fill="black"/>
<path d="M24.4828 10H19.6552V14.8276H24.4828V10Z" fill="black"/>
<path d="M29.3103 10H24.4828V14.8276H29.3103V10Z" fill="black"/>
<path d="M34.1379 10H29.3103V14.8276H34.1379V10Z" fill="black"/>
<path d="M38.9655 10H34.1379V14.8276H38.9655V10Z" fill="black"/>
<path d="M43.7931 10H38.9655V14.8276H43.7931V10Z" fill="black"/>
<path d="M53.4483 10H48.6207V14.8276H53.4483V10Z" fill="black"/>
<path d="M67.931 10H63.1035V14.8276H67.931V10Z" fill="black"/>
<path d="M72.7586 10H67.931V14.8276H72.7586V10Z" fill="black"/>
<path d="M77.5862 10H72.7586V14.8276H77.5862V10Z" fill="black"/>
<path d="M87.2414 10H82.4138V14.8276H87.2414V10Z" fill="black"/>
<path d="M101.724 10H96.8966V14.8276H101.724V10Z" fill="black"/>
<path d="M111.379 10H106.552V14.8276H111.379V10Z" fill="black"/>
<path d="M121.034 10H116.207V14.8276H121.034V10Z" fill="black"/>
<path d="M125.862 10H121.034V14.8276H125.862V10Z" fill="black"/>
<path d="M130.69 10H125.862V14.8276H130.69V10Z" fill="black"/>
<path d="M135.517 10H130.69V14.8276H135.517V10Z" fill="black"/>
<path d="M140.345 10H135.517V14.8276H140.345V10Z" fill="black"/>
<path d="M145.172 10H140.345V14.8276H145.172V10Z" fill="black"/>
<path d="M150 10H145.172V14.8276H150V10Z" fill="black"/>
<path d="M14.8276 14.8276H10V19.6552H14.8276V14.8276Z" fill="black"/>
<path d="M43.7931 14.8276H38.9655V19.6552H43.7931V14.8276Z" fill="black"/>
<path d="M58.2759 14.8276H53.4483V19.6552H58.2759V14.8276Z" fill="black"/>
<path d="M63.1035 14.8276H58.2759V19.6552H63.1035V14.8276Z" fill="black"/>
<path d="M67.931 14.8276H63.1035V19.6552H67.931V14.8276Z" fill="black"/>
<path d="M72.7586 14.8276H67.931V19.6552H72.7586V14.8276Z" fill="black"/>
<path d="M77.5862 14.8276H72.7586V19.6552H77.5862V14.8276Z" fill="black"/>
<path d="M121.034 14.8276H116.207V19.6552H121.034V14.8276Z" fill="black"/>
<path d="M150 14.8276H145.172V19.6552H150V14.8276Z" fill="black"/>
<path d="M14.8276 19.6552H10V24.4828H14.8276V19.6552Z" fill="black"/>
<path d="M24.4828 19.6552H19.6552V24.4828H24.4828V19.6552Z" fill="black"/>
<path d="M29.3103 19.6552H24.4828V24.4828H29.3103V19.6552Z" fill="black"/>
<path d="M34.1379 19.6552H29.3103V24.4828H34.1379V19.6552Z" fill="black"/>
<path d="M43.7931 19.6552H38.9655V24.4828H43.7931V19.6552Z" fill="black"/>
<path d="M67.931 19.6552H63.1035V24.4828H67.931V19.6552Z" fill="black"/>
<path d="M87.2414 19.6552H82.4138V24.4828H87.2414V19.6552Z" fill="black"/>
<path d="M92.069 19.6552H87.2414V24.4828H92.069V19.6552Z" fill="black"/>
<path d="M101.724 19.6552H96.8966V24.4828H101.724V19.6552Z" fill="black"/>
<path d="M111.379 19.6552H106.552V24.4828H111.379V19.6552Z" fill="black"/>
<path d="M121.034 19.6552H116.207V24.4828H121.034V19.6552Z" fill="black"/>
<path d="M130.69 19.6552H125.862V24.4828H130.69V19.6552Z" fill="black"/>
<path d="M135.517 19.6552H130.69V24.4828H135.517V19.6552Z" fill="black"/>
<path d="M140.345 19.6552H135.517V24.4828H140.345V19.6552Z" fill="black"/>
<path d="M150 19.6552H145.172V24.4828H150V19.6552Z" fill="black"/>
<path d="M14.8276 24.4828H10V29.3103H14.8276V24.4828Z" fill="black"/>
<path d="M24.4828 24.4828H19.6552V29.3103H24.4828V24.4828Z" fill="black"/>
<path d="M29.3103 24.4828H24.4828V29.3103H29.3103V24.4828Z" fill="black"/>
<path d="M34.1379 24.4828H29.3103V29.3103H34.1379V24.4828Z" fill="black"/>
<path d="M43.7931 24.4828H38.9655V29.3103H43.7931V24.4828Z" fill="black"/>
<path d="M53.4483 24.4828H48.6207V29.3103H53.4483V24.4828Z" fill="black"/>
<path d="M58.2759 24.4828H53.4483V29.3103H58.2759V24.4828Z" fill="black"/>
<path d="M63.1035 24.4828H58.2759V29.3103H63.1035V24.4828Z" fill="black"/>
<path d="M67.931 24.4828H63.1035V29.3103H67.931V24.4828Z" fill="black"/>
<path d="M72.7586 24.4828H67.931V29.3103H72.7586V24.4828Z" fill="black"/>
<path d="M96.8966 24.4828H92.069V29.3103H96.8966V24.4828Z" fill="black"/>
<path d="M101.724 24.4828H96.8966V29.3103H101.724V24.4828Z" fill="black"/>
<path d="M111.379 24.4828H106.552V29.3103H111.379V24.4828Z" fill="black"/>
<path d="M121.034 24.4828H116.207V29.3103H121.034V24.4828Z" fill="black"/>
<path d="M130.69 24.4828H125.862V29.3103H130.69V24.4828Z" fill="black"/>
<path d="M135.517 24.4828H130.69V29.3103H135.517V24.4828Z" fill="black"/>
<path d="M140.345 24.4828H135.517V29.3103H140.345V24.4828Z" fill="black"/>
<path d="M150 24.4828H145.172V29.3103H150V24.4828Z" fill="black"/>
<path d="M14.8276 29.3103H10V34.1379H14.8276V29.3103Z" fill="black"/>
<path d="M24.4828 29.3103H19.6552V34.1379H24.4828V29.3103Z" fill="black"/>
<path d="M29.3103 29.3103H24.4828V34.1379H29.3103V29.3103Z" fill="black"/>
<path d="M34.1379 29.3103H29.3103V34.1379H34.1379V29.3103Z" fill="black"/>
<path d="M43.7931 29.3103H38.9655V34.1379H43.7931V29.3103Z" fill="black"/>
<path d="M58.2759 29.3103H53.4483V34.1379H58.2759V29.3103Z" fill="black"/>
<path d="M72.7586 29.3103H67.931V34.1379H72.7586V29.3103Z" fill="black"/>
<path d="M77.5862 29.3103H72.7586V34.1379H77.5862V29.3103Z" fill="black"/>
<path d="M87.2414 29.3103H82.4138V34.1379H87.2414V29.3103Z" fill="black"/>
<path d="M92.069 29.3103H87.2414V34.1379H92.069V29.3103Z" fill="black"/>
<path d="M96.8966 29.3103H92.069V34.1379H96.8966V29.3103Z" fill="black"/>
<path d="M121.034 29.3103H116.207V34.1379H121.034V29.3103Z" fill="black"/>
<path d="M130.69 29.3103H125.862V34.1379H130.69V29.3103Z" fill="black"/>
<path d="M135.517 29.3103H130.69V34.1379H135.517V29.3103Z" fill="black"/>
<path d="M140.345 29.3103H135.517V34.1379H140.345V29.3103Z" fill="black"/>
<path d="M150 29.3103H145.172V34.1379H150V29.3103Z" fill="black"/>
<path d="M14.8276 34.1379H10V38.9655H14.8276V34.1379Z" fill="black"/>
<path d="M43.7931 34.1379H38.9655V38.9655H43.7931V34.1379Z" fill="black"/>
<path d="M53.4483 34.1379H48.6207V38.9655H53.4483V34.1379Z" fill="black"/>
<path d="M67.931 34.1379H63.1035V38.9655H67.931V34.1379Z" fill="black"/>
<path d="M82.4138 34.1379H77.5862V38.9655H82.4138V34.1379Z" fill="black"/>
<path d="M87.2414 34.1379H82.4138V38.9655H87.2414V34.1379Z" fill="black"/>
<path d="M121.034 34.1379H116.207V38.9655H121.034V34.1379Z" fill="black"/>
<path d="M150 34.1379H145.172V38.9655H150V34.1379Z" fill="black"/>
<path d="M14.8276 38.9655H10V43.7931H14.8276V38.9655Z" fill="black"/>
<path d="M19.6552 38.9655H14.8276V43.7931H19.6552V38.9655Z" fill="black"/>
<path d="M24.4828 38.9655H19.6552V43.7931H24.4828V38.9655Z" fill="black"/>
<path d="M29.3103 38.9655H24.4828V43.7931H29.3103V38.9655Z" fill="black"/>
<path d="M34.1379 38.9655H29.3103V43.7931H34.1379V38.9655Z" fill="black"/>
<path d="M38.9655 38.9655H34.1379V43.7931H38.9655V38.9655Z" fill="black"/>
<path d="M43.7931 38.9655H38.9655V43.7931H43.7931V38.9655Z" fill="black"/>
<path d="M53.4483 38.9655H48.6207V43.7931H53.4483V38.9655Z" fill="black"/>
<path d="M63.1035 38.9655H58.2759V43.7931H63.1035V38.9655Z" fill="black"/>
<path d="M72.7586 38.9655H67.931V43.7931H72.7586V38.9655Z" fill="black"/>
<path d="M82.4138 38.9655H77.5862V43.7931H82.4138V38.9655Z" fill="black"/>
<path d="M92.069 38.9655H87.2414V43.7931H92.069V38.9655Z" fill="black"/>
<path d="M101.724 38.9655H96.8966V43.7931H101.724V38.9655Z" fill="black"/>
<path d="M111.379 38.9655H106.552V43.7931H111.379V38.9655Z" fill="black"/>
<path d="M121.034 38.9655H116.207V43.7931H121.034V38.9655Z" fill="black"/>
<path d="M125.862 38.9655H121.034V43.7931H125.862V38.9655Z" fill="black"/>
<path d="M130.69 38.9655H125.862V43.7931H130.69V38.9655Z" fill="black"/>
<path d="M135.517 38.9655H130.69V43.7931H135.517V38.9655Z" fill="black"/>
<path d="M140.345 38.9655H135.517V43.7931H140.345V38.9655Z" fill="black"/>
<path d="M145.172 38.9655H140.345V43.7931H145.172V38.9655Z" fill="black"/>
<path d="M150 38.9655H145.172V43.7931H150V38.9655Z" fill="black"/>
<path d="M63.1035 43.7931H58.2759V48.6207H63.1035V43.7931Z" fill="black"/>
<path d="M87.2414 43.7931H82.4138V48.6207H87.2414V43.7931Z" fill="black"/>
<path d="M92.069 43.7931H87.2414V48.6207H92.069V43.7931Z" fill="black"/>
<path d="M106.552 43.7931H101.724V48.6207H106.552V43.7931Z" fill="black"/>
<path d="M38.9655 48.6207H34.1379V53.4483H38.9655V48.6207Z" fill="black"/>
<path d="M43.7931 48.6207H38.9655V53.4483H43.7931V48.6207Z" fill="black"/>
<path d="M53.4483 48.6207H48.6207V53.4483H53.4483V48.6207Z" fill="black"/>
<path d="M63.1035 48.6207H58.2759V53.4483H63.1035V48.6207Z" fill="black"/>
<path d="M67.931 48.6207H63.1035V53.4483H67.931V48.6207Z" fill="black"/>
<path d="M72.7586 48.6207H67.931V53.4483H72.7586V48.6207Z" fill="black"/>
<path d="M92.069 48.6207H87.2414V53.4483H92.069V48.6207Z" fill="black"/>
<path d="M101.724 48.6207H96.8966V53.4483H101.724V48.6207Z" fill="black"/>
<path d="M106.552 48.6207H101.724V53.4483H106.552V48.6207Z" fill="black"/>
<path d="M116.207 48.6207H111.379V53.4483H116.207V48.6207Z" fill="black"/>
<path d="M125.862 48.6207H121.034V53.4483H125.862V48.6207Z" fill="black"/>
<path d="M135.517 48.6207H130.69V53.4483H135.517V48.6207Z" fill="black"/>
<path d="M150 48.6207H145.172V53.4483H150V48.6207Z" fill="black"/>
<path d="M29.3103 53.4483H24.4828V58.2759H29.3103V53.4483Z" fill="black"/>
<path d="M34.1379 53.4483H29.3103V58.2759H34.1379V53.4483Z" fill="black"/>
<path d="M48.6207 53.4483H43.7931V58.2759H48.6207V53.4483Z" fill="black"/>
<path d="M72.7586 53.4483H67.931V58.2759H72.7586V53.4483Z" fill="black"/>
<path d="M77.5862 53.4483H72.7586V58.2759H77.5862V53.4483Z" fill="black"/>
<path d="M101.724 53.4483H96.8966V58.2759H101.724V53.4483Z" fill="black"/>
<path d="M106.552 53.4483H101.724V58.2759H106.552V53.4483Z" fill="black"/>
<path d="M135.517 53.4483H130.69V58.2759H135.517V53.4483Z" fill="black"/>
<path d="M145.172 53.4483H140.345V58.2759H145.172V53.4483Z" fill="black"/>
<path d="M19.6552 58.2759H14.8276V63.1035H19.6552V58.2759Z" fill="black"/>
<path d="M29.3103 58.2759H24.4828V63.1035H29.3103V58.2759Z" fill="black"/>
<path d="M38.9655 58.2759H34.1379V63.1035H38.9655V58.2759Z" fill="black"/>
<path d="M43.7931 58.2759H38.9655V63.1035H43.7931V58.2759Z" fill="black"/>
<path d="M53.4483 58.2759H48.6207V63.1035H53.4483V58.2759Z" fill="black"/>
<path d="M58.2759 58.2759H53.4483V63.1035H58.2759V58.2759Z" fill="black"/>
<path d="M67.931 58.2759H63.1035V63.1035H67.931V58.2759Z" fill="black"/>
<path d="M77.5862 58.2759H72.7586V63.1035H77.5862V58.2759Z" fill="black"/>
<path d="M87.2414 58.2759H82.4138V63.1035H87.2414V58.2759Z" fill="black"/>
<path d="M92.069 58.2759H87.2414V63.1035H92.069V58.2759Z" fill="black"/>
<path d="M96.8966 58.2759H92.069V63.1035H96.8966V58.2759Z" fill="black"/>
<path d="M101.724 58.2759H96.8966V63.1035H101.724V58.2759Z" fill="black"/>
<path d="M106.552 58.2759H101.724V63.1035H106.552V58.2759Z" fill="black"/>
<path d="M111.379 58.2759H106.552V63.1035H111.379V58.2759Z" fill="black"/>
<path d="M116.207 58.2759H111.379V63.1035H116.207V58.2759Z" fill="black"/>
<path d="M135.517 58.2759H130.69V63.1035H135.517V58.2759Z" fill="black"/>
<path d="M140.345 58.2759H135.517V63.1035H140.345V58.2759Z" fill="black"/>
<path d="M14.8276 63.1035H10V67.931H14.8276V63.1035Z" fill="black"/>
<path d="M34.1379 63.1035H29.3103V67.931H34.1379V63.1035Z" fill="black"/>
<path d="M48.6207 63.1035H43.7931V67.931H48.6207V63.1035Z" fill="black"/>
<path d="M53.4483 63.1035H48.6207V67.931H53.4483V63.1035Z" fill="black"/>
<path d="M58.2759 63.1035H53.4483V67.931H58.2759V63.1035Z" fill="black"/>
<path d="M63.1035 63.1035H58.2759V67.931H63.1035V63.1035Z" fill="black"/>
<path d="M67.931 63.1035H63.1035V67.931H67.931V63.1035Z" fill="black"/>
<path d="M72.7586 63.1035H67.931V67.931H72.7586V63.1035Z" fill="black"/>
<path d="M82.4138 63.1035H77.5862V67.931H82.4138V63.1035Z" fill="black"/>
<path d="M87.2414 63.1035H82.4138V67.931H87.2414V63.1035Z" fill="black"/>
<path d="M92.069 63.1035H87.2414V67.931H92.069V63.1035Z" fill="black"/>
<path d="M106.552 63.1035H101.724V67.931H106.552V63.1035Z" fill="black"/>
<path d="M116.207 63.1035H111.379V67.931H116.207V63.1035Z" fill="black"/>
<path d="M121.034 63.1035H116.207V67.931H121.034V63.1035Z" fill="black"/>
<path d="M130.69 63.1035H125.862V67.931H130.69V63.1035Z" fill="black"/>
<path d="M135.517 63.1035H130.69V67.931H135.517V63.1035Z" fill="black"/>
<path d="M140.345 63.1035H135.517V67.931H140.345V63.1035Z" fill="black"/>
<path d="M145.172 63.1035H140.345V67.931H145.172V63.1035Z" fill="black"/>
<path d="M29.3103 67.931H24.4828V72.7586H29.3103V67.931Z" fill="black"/>
<path d="M43.7931 67.931H38.9655V72.7586H43.7931V67.931Z" fill="black"/>
<path d="M72.7586 67.931H67.931V72.7586H72.7586V67.931Z" fill="black"/>
<path d="M77.5862 67.931H72.7586V72.7586H77.5862V67.931Z" fill="black"/>
<path d="M82.4138 67.931H77.5862V72.7586H82.4138V67.931Z" fill="black"/>
<path d="M101.724 67.931H96.8966V72.7586H101.724V67.931Z" fill="black"/>
<path d="M106.552 67.931H101.724V72.7586H106.552V67.931Z" fill="black"/>
<path d="M111.379 67.931H106.552V72.7586H111.379V67.931Z" fill="black"/>
<path d="M116.207 67.931H111.379V72.7586H116.207V67.931Z" fill="black"/>
<path d="M140.345 67.931H135.517V72.7586H140.345V67.931Z" fill="black"/>
<path d="M29.3103 72.7586H24.4828V77.5862H29.3103V72.7586Z" fill="black"/>
<path d="M48.6207 72.7586H43.7931V77.5862H48.6207V72.7586Z" fill="black"/>
<path d="M58.2759 72.7586H53.4483V77.5862H58.2759V72.7586Z" fill="black"/>
<path d="M63.1035 72.7586H58.2759V77.5862H63.1035V72.7586Z" fill="black"/>
<path d="M67.931 72.7586H63.1035V77.5862H67.931V72.7586Z" fill="black"/>
<path d="M77.5862 72.7586H72.7586V77.5862H77.5862V72.7586Z" fill="black"/>
<path d="M82.4138 72.7586H77.5862V77.5862H82.4138V72.7586Z" fill="black"/>
<path d="M92.069 72.7586H87.2414V77.5862H92.069V72.7586Z" fill="black"/>
<path d="M96.8966 72.7586H92.069V77.5862H96.8966V72.7586Z" fill="black"/>
<path d="M135.517 72.7586H130.69V77.5862H135.517V72.7586Z" fill="black"/>
<path d="M14.8276 77.5862H10V82.4138H14.8276V77.5862Z" fill="black"/>
<path d="M24.4828 77.5862H19.6552V82.4138H24.4828V77.5862Z" fill="black"/>
<path d="M43.7931 77.5862H38.9655V82.4138H43.7931V77.5862Z" fill="black"/>
<path d="M53.4483 77.5862H48.6207V82.4138H53.4483V77.5862Z" fill="black"/>
<path d="M63.1035 77.5862H58.2759V82.4138H63.1035V77.5862Z" fill="black"/>
<path d="M72.7586 77.5862H67.931V82.4138H72.7586V77.5862Z" fill="black"/>
<path d="M77.5862 77.5862H72.7586V82.4138H77.5862V77.5862Z" fill="black"/>
<path d="M82.4138 77.5862H77.5862V82.4138H82.4138V77.5862Z" fill="black"/>
<path d="M96.8966 77.5862H92.069V82.4138H96.8966V77.5862Z" fill="black"/>
<path d="M101.724 77.5862H96.8966V82.4138H101.724V77.5862Z" fill="black"/>
<path d="M106.552 77.5862H101.724V82.4138H106.552V77.5862Z" fill="black"/>
<path d="M116.207 77.5862H111.379V82.4138H116.207V77.5862Z" fill="black"/>
<path d="M125.862 77.5862H121.034V82.4138H125.862V77.5862Z" fill="black"/>
<path d="M145.172 77.5862H140.345V82.4138H145.172V77.5862Z" fill="black"/>
<path d="M24.4828 82.4138H19.6552V87.2414H24.4828V82.4138Z" fill="black"/>
<path d="M38.9655 82.4138H34.1379V87.2414H38.9655V82.4138Z" fill="black"/>
<path d="M48.6207 82.4138H43.7931V87.2414H48.6207V82.4138Z" fill="black"/>
<path d="M58.2759 82.4138H53.4483V87.2414H58.2759V82.4138Z" fill="black"/>
<path d="M63.1035 82.4138H58.2759V87.2414H63.1035V82.4138Z" fill="black"/>
<path d="M72.7586 82.4138H67.931V87.2414H72.7586V82.4138Z" fill="black"/>
<path d="M77.5862 82.4138H72.7586V87.2414H77.5862V82.4138Z" fill="black"/>
<path d="M87.2414 82.4138H82.4138V87.2414H87.2414V82.4138Z" fill="black"/>
<path d="M96.8966 82.4138H92.069V87.2414H96.8966V82.4138Z" fill="black"/>
<path d="M101.724 82.4138H96.8966V87.2414H101.724V82.4138Z" fill="black"/>
<path d="M111.379 82.4138H106.552V87.2414H111.379V82.4138Z" fill="black"/>
<path d="M116.207 82.4138H111.379V87.2414H116.207V82.4138Z" fill="black"/>
<path d="M125.862 82.4138H121.034V87.2414H125.862V82.4138Z" fill="black"/>
<path d="M135.517 82.4138H130.69V87.2414H135.517V82.4138Z" fill="black"/>
<path d="M140.345 82.4138H135.517V87.2414H140.345V82.4138Z" fill="black"/>
<path d="M150 82.4138H145.172V87.2414H150V82.4138Z" fill="black"/>
<path d="M19.6552 87.2414H14.8276V92.069H19.6552V87.2414Z" fill="black"/>
<path d="M29.3103 87.2414H24.4828V92.069H29.3103V87.2414Z" fill="black"/>
<path d="M38.9655 87.2414H34.1379V92.069H38.9655V87.2414Z" fill="black"/>
<path d="M43.7931 87.2414H38.9655V92.069H43.7931V87.2414Z" fill="black"/>
<path d="M48.6207 87.2414H43.7931V92.069H48.6207V87.2414Z" fill="black"/>
<path d="M53.4483 87.2414H48.6207V92.069H53.4483V87.2414Z" fill="black"/>
<path d="M58.2759 87.2414H53.4483V92.069H58.2759V87.2414Z" fill="black"/>
<path d="M67.931 87.2414H63.1035V92.069H67.931V87.2414Z" fill="black"/>
<path d="M77.5862 87.2414H72.7586V92.069H77.5862V87.2414Z" fill="black"/>
<path d="M96.8966 87.2414H92.069V92.069H96.8966V87.2414Z" fill="black"/>
<path d="M101.724 87.2414H96.8966V92.069H101.724V87.2414Z" fill="black"/>
<path d="M121.034 87.2414H116.207V92.069H121.034V87.2414Z" fill="black"/>
<path d="M130.69 87.2414H125.862V92.069H130.69V87.2414Z" fill="black"/>
<path d="M140.345 87.2414H135.517V92.069H140.345V87.2414Z" fill="black"/>
<path d="M145.172 87.2414H140.345V92.069H145.172V87.2414Z" fill="black"/>
<path d="M150 87.2414H145.172V92.069H150V87.2414Z" fill="black"/>
<path d="M14.8276 92.069H10V96.8966H14.8276V92.069Z" fill="black"/>
<path d="M19.6552 92.069H14.8276V96.8966H19.6552V92.069Z" fill="black"/>
<path d="M24.4828 92.069H19.6552V96.8966H24.4828V92.069Z" fill="black"/>
<path d="M29.3103 92.069H24.4828V96.8966H29.3103V92.069Z" fill="black"/>
<path d="M34.1379 92.069H29.3103V96.8966H34.1379V92.069Z" fill="black"/>
<path d="M48.6207 92.069H43.7931V96.8966H48.6207V92.069Z" fill="black"/>
<path d="M53.4483 92.069H48.6207V96.8966H53.4483V92.069Z" fill="black"/>
<path d="M87.2414 92.069H82.4138V96.8966H87.2414V92.069Z" fill="black"/>
<path d="M96.8966 92.069H92.069V96.8966H96.8966V92.069Z" fill="black"/>
<path d="M106.552 92.069H101.724V96.8966H106.552V92.069Z" fill="black"/>
<path d="M111.379 92.069H106.552V96.8966H111.379V92.069Z" fill="black"/>
<path d="M121.034 92.069H116.207V96.8966H121.034V92.069Z" fill="black"/>
<path d="M125.862 92.069H121.034V96.8966H125.862V92.069Z" fill="black"/>
<path d="M135.517 92.069H130.69V96.8966H135.517V92.069Z" fill="black"/>
<path d="M140.345 92.069H135.517V96.8966H140.345V92.069Z" fill="black"/>
<path d="M145.172 92.069H140.345V96.8966H145.172V92.069Z" fill="black"/>
<path d="M14.8276 96.8966H10V101.724H14.8276V96.8966Z" fill="black"/>
<path d="M19.6552 96.8966H14.8276V101.724H19.6552V96.8966Z" fill="black"/>
<path d="M29.3103 96.8966H24.4828V101.724H29.3103V96.8966Z" fill="black"/>
<path d="M43.7931 96.8966H38.9655V101.724H43.7931V96.8966Z" fill="black"/>
<path d="M58.2759 96.8966H53.4483V101.724H58.2759V96.8966Z" fill="black"/>
<path d="M63.1035 96.8966H58.2759V101.724H63.1035V96.8966Z" fill="black"/>
<path d="M67.931 96.8966H63.1035V101.724H67.931V96.8966Z" fill="black"/>
<path d="M77.5862 96.8966H72.7586V101.724H77.5862V96.8966Z" fill="black"/>
<path d="M82.4138 96.8966H77.5862V101.724H82.4138V96.8966Z" fill="black"/>
<path d="M96.8966 96.8966H92.069V101.724H96.8966V96.8966Z" fill="black"/>
<path d="M106.552 96.8966H101.724V101.724H106.552V96.8966Z" fill="black"/>
<path d="M111.379 96.8966H106.552V101.724H111.379V96.8966Z" fill="black"/>
<path d="M140.345 96.8966H135.517V101.724H140.345V96.8966Z" fill="black"/>
<path d="M145.172 96.8966H140.345V101.724H145.172V96.8966Z" fill="black"/>
<path d="M150 96.8966H145.172V101.724H150V96.8966Z" fill="black"/>
<path d="M14.8276 101.724H10V106.552H14.8276V101.724Z" fill="black"/>
<path d="M29.3103 101.724H24.4828V106.552H29.3103V101.724Z" fill="black"/>
<path d="M38.9655 101.724H34.1379V106.552H38.9655V101.724Z" fill="black"/>
<path d="M63.1035 101.724H58.2759V106.552H63.1035V101.724Z" fill="black"/>
<path d="M77.5862 101.724H72.7586V106.552H77.5862V101.724Z" fill="black"/>
<path d="M92.069 101.724H87.2414V106.552H92.069V101.724Z" fill="black"/>
<path d="M125.862 101.724H121.034V106.552H125.862V101.724Z" fill="black"/>
<path d="M135.517 101.724H130.69V106.552H135.517V101.724Z" fill="black"/>
<path d="M140.345 101.724H135.517V106.552H140.345V101.724Z" fill="black"/>
<path d="M145.172 101.724H140.345V106.552H145.172V101.724Z" fill="black"/>
<path d="M14.8276 106.552H10V111.379H14.8276V106.552Z" fill="black"/>
<path d="M19.6552 106.552H14.8276V111.379H19.6552V106.552Z" fill="black"/>
<path d="M24.4828 106.552H19.6552V111.379H24.4828V106.552Z" fill="black"/>
<path d="M29.3103 106.552H24.4828V111.379H29.3103V106.552Z" fill="black"/>
<path d="M34.1379 106.552H29.3103V111.379H34.1379V106.552Z" fill="black"/>
<path d="M38.9655 106.552H34.1379V111.379H38.9655V106.552Z" fill="black"/>
<path d="M43.7931 106.552H38.9655V111.379H43.7931V106.552Z" fill="black"/>
<path d="M48.6207 106.552H43.7931V111.379H48.6207V106.552Z" fill="black"/>
<path d="M53.4483 106.552H48.6207V111.379H53.4483V106.552Z" fill="black"/>
<path d="M67.931 106.552H63.1035V111.379H67.931V106.552Z" fill="black"/>
<path d="M96.8966 106.552H92.069V111.379H96.8966V106.552Z" fill="black"/>
<path d="M111.379 106.552H106.552V111.379H111.379V106.552Z" fill="black"/>
<path d="M116.207 106.552H111.379V111.379H116.207V106.552Z" fill="black"/>
<path d="M121.034 106.552H116.207V111.379H121.034V106.552Z" fill="black"/>
<path d="M125.862 106.552H121.034V111.379H125.862V106.552Z" fill="black"/>
<path d="M130.69 106.552H125.862V111.379H130.69V106.552Z" fill="black"/>
<path d="M140.345 106.552H135.517V111.379H140.345V106.552Z" fill="black"/>
<path d="M145.172 106.552H140.345V111.379H145.172V106.552Z" fill="black"/>
<path d="M150 106.552H145.172V111.379H150V106.552Z" fill="black"/>
<path d="M53.4483 111.379H48.6207V116.207H53.4483V111.379Z" fill="black"/>
<path d="M58.2759 111.379H53.4483V116.207H58.2759V111.379Z" fill="black"/>
<path d="M63.1035 111.379H58.2759V116.207H63.1035V111.379Z" fill="black"/>
<path d="M72.7586 111.379H67.931V116.207H72.7586V111.379Z" fill="black"/>
<path d="M87.2414 111.379H82.4138V116.207H87.2414V111.379Z" fill="black"/>
<path d="M92.069 111.379H87.2414V116.207H92.069V111.379Z" fill="black"/>
<path d="M96.8966 111.379H92.069V116.207H96.8966V111.379Z" fill="black"/>
<path d="M101.724 111.379H96.8966V116.207H101.724V111.379Z" fill="black"/>
<path d="M111.379 111.379H106.552V116.207H111.379V111.379Z" fill="black"/>
<path d="M130.69 111.379H125.862V116.207H130.69V111.379Z" fill="black"/>
<path d="M150 111.379H145.172V116.207H150V111.379Z" fill="black"/>
<path d="M14.8276 116.207H10V121.034H14.8276V116.207Z" fill="black"/>
<path d="M19.6552 116.207H14.8276V121.034H19.6552V116.207Z" fill="black"/>
<path d="M24.4828 116.207H19.6552V121.034H24.4828V116.207Z" fill="black"/>
<path d="M29.3103 116.207H24.4828V121.034H29.3103V116.207Z" fill="black"/>
<path d="M34.1379 116.207H29.3103V121.034H34.1379V116.207Z" fill="black"/>
<path d="M38.9655 116.207H34.1379V121.034H38.9655V116.207Z" fill="black"/>
<path d="M43.7931 116.207H38.9655V121.034H43.7931V116.207Z" fill="black"/>
<path d="M58.2759 116.207H53.4483V121.034H58.2759V116.207Z" fill="black"/>
<path d="M63.1035 116.207H58.2759V121.034H63.1035V116.207Z" fill="black"/>
<path d="M67.931 116.207H63.1035V121.034H67.931V116.207Z" fill="black"/>
<path d="M72.7586 116.207H67.931V121.034H72.7586V116.207Z" fill="black"/>
<path d="M82.4138 116.207H77.5862V121.034H82.4138V116.207Z" fill="black"/>
<path d="M87.2414 116.207H82.4138V121.034H87.2414V116.207Z" fill="black"/>
<path d="M96.8966 116.207H92.069V121.034H96.8966V116.207Z" fill="black"/>
<path d="M111.379 116.207H106.552V121.034H111.379V116.207Z" fill="black"/>
<path d="M121.034 116.207H116.207V121.034H121.034V116.207Z" fill="black"/>
<path d="M130.69 116.207H125.862V121.034H130.69V116.207Z" fill="black"/>
<path d="M135.517 116.207H130.69V121.034H135.517V116.207Z" fill="black"/>
<path d="M145.172 116.207H140.345V121.034H145.172V116.207Z" fill="black"/>
<path d="M150 116.207H145.172V121.034H150V116.207Z" fill="black"/>
<path d="M14.8276 121.034H10V125.862H14.8276V121.034Z" fill="black"/>
<path d="M43.7931 121.034H38.9655V125.862H43.7931V121.034Z" fill="black"/>
<path d="M53.4483 121.034H48.6207V125.862H53.4483V121.034Z" fill="black"/>
<path d="M58.2759 121.034H53.4483V125.862H58.2759V121.034Z" fill="black"/>
<path d="M63.1035 121.034H58.2759V125.862H63.1035V121.034Z" fill="black"/>
<path d="M67.931 121.034H63.1035V125.862H67.931V121.034Z" fill="black"/>
<path d="M96.8966 121.034H92.069V125.862H96.8966V121.034Z" fill="black"/>
<path d="M101.724 121.034H96.8966V125.862H101.724V121.034Z" fill="black"/>
<path d="M106.552 121.034H101.724V125.862H106.552V121.034Z" fill="black"/>
<path d="M111.379 121.034H106.552V125.862H111.379V121.034Z" fill="black"/>
<path d="M130.69 121.034H125.862V125.862H130.69V121.034Z" fill="black"/>
<path d="M135.517 121.034H130.69V125.862H135.517V121.034Z" fill="black"/>
<path d="M145.172 121.034H140.345V125.862H145.172V121.034Z" fill="black"/>
<path d="M150 121.034H145.172V125.862H150V121.034Z" fill="black"/>
<path d="M14.8276 125.862H10V130.69H14.8276V125.862Z" fill="black"/>
<path d="M24.4828 125.862H19.6552V130.69H24.4828V125.862Z" fill="black"/>
<path d="M29.3103 125.862H24.4828V130.69H29.3103V125.862Z" fill="black"/>
<path d="M34.1379 125.862H29.3103V130.69H34.1379V125.862Z" fill="black"/>
<path d="M43.7931 125.862H38.9655V130.69H43.7931V125.862Z" fill="black"/>
<path d="M63.1035 125.862H58.2759V130.69H63.1035V125.862Z" fill="black"/>
<path d="M67.931 125.862H63.1035V130.69H67.931V125.862Z" fill="black"/>
<path d="M87.2414 125.862H82.4138V130.69H87.2414V125.862Z" fill="black"/>
<path d="M111.379 125.862H106.552V130.69H111.379V125.862Z" fill="black"/>
<path d="M116.207 125.862H111.379V130.69H116.207V125.862Z" fill="black"/>
<path d="M121.034 125.862H116.207V130.69H121.034V125.862Z" fill="black"/>
<path d="M125.862 125.862H121.034V130.69H125.862V125.862Z" fill="black"/>
<path d="M130.69 125.862H125.862V130.69H130.69V125.862Z" fill="black"/>
<path d="M135.517 125.862H130.69V130.69H135.517V125.862Z" fill="black"/>
<path d="M140.345 125.862H135.517V130.69H140.345V125.862Z" fill="black"/>
<path d="M145.172 125.862H140.345V130.69H145.172V125.862Z" fill="black"/>
<path d="M14.8276 130.69H10V135.517H14.8276V130.69Z" fill="black"/>
<path d="M24.4828 130.69H19.6552V135.517H24.4828V130.69Z" fill="black"/>
<path d="M29.3103 130.69H24.4828V135.517H29.3103V130.69Z" fill="black"/>
<path d="M34.1379 130.69H29.3103V135.517H34.1379V130.69Z" fill="black"/>
<path d="M43.7931 130.69H38.9655V135.517H43.7931V130.69Z" fill="black"/>
<path d="M63.1035 130.69H58.2759V135.517H63.1035V130.69Z" fill="black"/>
<path d="M77.5862 130.69H72.7586V135.517H77.5862V130.69Z" fill="black"/>
<path d="M82.4138 130.69H77.5862V135.517H82.4138V130.69Z" fill="black"/>
<path d="M92.069 130.69H87.2414V135.517H92.069V130.69Z" fill="black"/>
<path d="M96.8966 130.69H92.069V135.517H96.8966V130.69Z" fill="black"/>
<path d="M101.724 130.69H96.8966V135.517H101.724V130.69Z" fill="black"/>
<path d="M106.552 130.69H101.724V135.517H106.552V130.69Z" fill="black"/>
<path d="M135.517 130.69H130.69V135.517H135.517V130.69Z" fill="black"/>
<path d="M140.345 130.69H135.517V135.517H140.345V130.69Z" fill="black"/>
<path d="M145.172 130.69H140.345V135.517H145.172V130.69Z" fill="black"/>
<path d="M150 130.69H145.172V135.517H150V130.69Z" fill="black"/>
<path d="M14.8276 135.517H10V140.345H14.8276V135.517Z" fill="black"/>
<path d="M24.4828 135.517H19.6552V140.345H24.4828V135.517Z" fill="black"/>
<path d="M29.3103 135.517H24.4828V140.345H29.3103V135.517Z" fill="black"/>
<path d="M34.1379 135.517H29.3103V140.345H34.1379V135.517Z" fill="black"/>
<path d="M43.7931 135.517H38.9655V140.345H43.7931V135.517Z" fill="black"/>
<path d="M58.2759 135.517H53.4483V140.345H58.2759V135.517Z" fill="black"/>
<path d="M67.931 135.517H63.1035V140.345H67.931V135.517Z" fill="black"/>
<path d="M82.4138 135.517H77.5862V140.345H82.4138V135.517Z" fill="black"/>
<path d="M96.8966 135.517H92.069V140.345H96.8966V135.517Z" fill="black"/>
<path d="M101.724 135.517H96.8966V140.345H101.724V135.517Z" fill="black"/>
<path d="M111.379 135.517H106.552V140.345H111.379V135.517Z" fill="black"/>
<path d="M116.207 135.517H111.379V140.345H116.207V135.517Z" fill="black"/>
<path d="M121.034 135.517H116.207V140.345H121.034V135.517Z" fill="black"/>
<path d="M125.862 135.517H121.034V140.345H125.862V135.517Z" fill="black"/>
<path d="M14.8276 140.345H10V145.172H14.8276V140.345Z" fill="black"/>
<path d="M43.7931 140.345H38.9655V145.172H43.7931V140.345Z" fill="black"/>
<path d="M58.2759 140.345H53.4483V145.172H58.2759V140.345Z" fill="black"/>
<path d="M72.7586 140.345H67.931V145.172H72.7586V140.345Z" fill="black"/>
<path d="M82.4138 140.345H77.5862V145.172H82.4138V140.345Z" fill="black"/>
<path d="M92.069 140.345H87.2414V145.172H92.069V140.345Z" fill="black"/>
<path d="M101.724 140.345H96.8966V145.172H101.724V140.345Z" fill="black"/>
<path d="M111.379 140.345H106.552V145.172H111.379V140.345Z" fill="black"/>
<path d="M121.034 140.345H116.207V145.172H121.034V140.345Z" fill="black"/>
<path d="M145.172 140.345H140.345V145.172H145.172V140.345Z" fill="black"/>
<path d="M150 140.345H145.172V145.172H150V140.345Z" fill="black"/>
<path d="M14.8276 145.172H10V150H14.8276V145.172Z" fill="black"/>
<path d="M19.6552 145.172H14.8276V150H19.6552V145.172Z" fill="black"/>
<path d="M24.4828 145.172H19.6552V150H24.4828V145.172Z" fill="black"/>
<path d="M29.3103 145.172H24.4828V150H29.3103V145.172Z" fill="black"/>
<path d="M34.1379 145.172H29.3103V150H34.1379V145.172Z" fill="black"/>
<path d="M38.9655 145.172H34.1379V150H38.9655V145.172Z" fill="black"/>
<path d="M43.7931 145.172H38.9655V150H43.7931V145.172Z" fill="black"/>
<path d="M58.2759 145.172H53.4483V150H58.2759V145.172Z" fill="black"/>
<path d="M67.931 145.172H63.1035V150H67.931V145.172Z" fill="black"/>
<path d="M72.7586 145.172H67.931V150H72.7586V145.172Z" fill="black"/>
<path d="M82.4138 145.172H77.5862V150H82.4138V145.172Z" fill="black"/>
<path d="M87.2414 145.172H82.4138V150H87.2414V145.172Z" fill="black"/>
<path d="M96.8966 145.172H92.069V150H96.8966V145.172Z" fill="black"/>
<path d="M101.724 145.172H96.8966V150H101.724V145.172Z" fill="black"/>
<path d="M111.379 145.172H106.552V150H111.379V145.172Z" fill="black"/>
<path d="M116.207 145.172H111.379V150H116.207V145.172Z" fill="black"/>
<path d="M125.862 145.172H121.034V150H125.862V145.172Z" fill="black"/>
<path d="M135.517 145.172H130.69V150H135.517V145.172Z" fill="black"/>
<path d="M140.345 145.172H135.517V150H140.345V145.172Z" fill="black"/>
</g>
<defs>
<clipPath id="clip0_5096_18340">
<rect width="160" height="160" rx="8" fill="white"/>
</clipPath>
</defs>
</svg>
