<svg width="40" height="40" viewBox="0 0 40 40" fill="none" xmlns="http://www.w3.org/2000/svg">
<g clip-path="url(#clip0_4898_25810)">
<rect width="40" height="40" rx="8" fill="#006E2C"/>
<path opacity="0.5" d="M0 0H40L0 40V0Z" fill="#21A64B"/>
<path d="M10 26C10 24.4596 10 23.6893 10.3467 23.1235C10.5407 22.8069 10.8069 22.5407 11.1235 22.3467C11.6893 22 12.4596 22 14 22C15.5404 22 16.3107 22 16.8765 22.3467C17.1931 22.5407 17.4593 22.8069 17.6533 23.1235C18 23.6893 18 24.4596 18 26C18 27.5404 18 28.3107 17.6533 28.8765C17.4593 29.1931 17.1931 29.4593 16.8765 29.6533C16.3107 30 15.5404 30 14 30C12.4596 30 11.6893 30 11.1235 29.6533C10.8069 29.4593 10.5407 29.1931 10.3467 28.8765C10 28.3107 10 27.5404 10 26Z" stroke="white" stroke-width="1.5"/>
<path d="M22 26C22 24.4596 22 23.6893 22.3467 23.1235C22.5407 22.8069 22.8069 22.5407 23.1235 22.3467C23.6893 22 24.4596 22 26 22C27.5404 22 28.3107 22 28.8765 22.3467C29.1931 22.5407 29.4593 22.8069 29.6533 23.1235C30 23.6893 30 24.4596 30 26C30 27.5404 30 28.3107 29.6533 28.8765C29.4593 29.1931 29.1931 29.4593 28.8765 29.6533C28.3107 30 27.5404 30 26 30C24.4596 30 23.6893 30 23.1235 29.6533C22.8069 29.4593 22.5407 29.1931 22.3467 28.8765C22 28.3107 22 27.5404 22 26Z" stroke="white" stroke-width="1.5"/>
<path d="M10 14C10 12.4596 10 11.6893 10.3467 11.1235C10.5407 10.8069 10.8069 10.5407 11.1235 10.3467C11.6893 10 12.4596 10 14 10C15.5404 10 16.3107 10 16.8765 10.3467C17.1931 10.5407 17.4593 10.8069 17.6533 11.1235C18 11.6893 18 12.4596 18 14C18 15.5404 18 16.3107 17.6533 16.8765C17.4593 17.1931 17.1931 17.4593 16.8765 17.6533C16.3107 18 15.5404 18 14 18C12.4596 18 11.6893 18 11.1235 17.6533C10.8069 17.4593 10.5407 17.1931 10.3467 16.8765C10 16.3107 10 15.5404 10 14Z" stroke="white" stroke-width="1.5"/>
<path d="M22 14C22 12.4596 22 11.6893 22.3467 11.1235C22.5407 10.8069 22.8069 10.5407 23.1235 10.3467C23.6893 10 24.4596 10 26 10C27.5404 10 28.3107 10 28.8765 10.3467C29.1931 10.5407 29.4593 10.8069 29.6533 11.1235C30 11.6893 30 12.4596 30 14C30 15.5404 30 16.3107 29.6533 16.8765C29.4593 17.1931 29.1931 17.4593 28.8765 17.6533C28.3107 18 27.5404 18 26 18C24.4596 18 23.6893 18 23.1235 17.6533C22.8069 17.4593 22.5407 17.1931 22.3467 16.8765C22 16.3107 22 15.5404 22 14Z" stroke="white" stroke-width="1.5"/>
</g>
<defs>
<clipPath id="clip0_4898_25810">
<rect width="40" height="40" rx="8" fill="white"/>
</clipPath>
</defs>
</svg>
