<svg width="40" height="40" viewBox="0 0 40 40" fill="none" xmlns="http://www.w3.org/2000/svg">
<g clip-path="url(#clip0_4898_15805)">
<mask id="path-1-inside-1_4898_15805" fill="white">
<path d="M0 8C0 3.58172 3.58172 0 8 0H32C36.4183 0 40 3.58172 40 8V32C40 36.4183 36.4183 40 32 40H8C3.58172 40 0 36.4183 0 32V8Z"/>
</mask>
<path d="M0 8C0 3.58172 3.58172 0 8 0H32C36.4183 0 40 3.58172 40 8V32C40 36.4183 36.4183 40 32 40H8C3.58172 40 0 36.4183 0 32V8Z" fill="#BA1A1A"/>
<g filter="url(#filter0_d_4898_15805)">
<path d="M0 0H40L0 40V0Z" fill="#DE3730"/>
</g>
</g>
<path d="M0 0H40H0ZM40 40H0H40ZM0 40V0V40ZM32 0C36.9706 0 41 4.02944 41 9V31C41 35.9706 36.9706 40 32 40C35.866 40 39 36.4183 39 32V8C39 3.58172 35.866 0 32 0Z" fill="#FF897D" mask="url(#path-1-inside-1_4898_15805)"/>
<defs>
<filter id="filter0_d_4898_15805" x="-8" y="-6" width="56" height="56" filterUnits="userSpaceOnUse" color-interpolation-filters="sRGB">
<feFlood flood-opacity="0" result="BackgroundImageFix"/>
<feColorMatrix in="SourceAlpha" type="matrix" values="0 0 0 0 0 0 0 0 0 0 0 0 0 0 0 0 0 0 127 0" result="hardAlpha"/>
<feOffset dy="2"/>
<feGaussianBlur stdDeviation="4"/>
<feComposite in2="hardAlpha" operator="out"/>
<feColorMatrix type="matrix" values="0 0 0 0 0.4375 0 0 0 0 0.4375 0 0 0 0 0.4375 0 0 0 0.14 0"/>
<feBlend mode="normal" in2="BackgroundImageFix" result="effect1_dropShadow_4898_15805"/>
<feBlend mode="normal" in="SourceGraphic" in2="effect1_dropShadow_4898_15805" result="shape"/>
</filter>
<clipPath id="clip0_4898_15805">
<path d="M0 8C0 3.58172 3.58172 0 8 0H32C36.4183 0 40 3.58172 40 8V32C40 36.4183 36.4183 40 32 40H8C3.58172 40 0 36.4183 0 32V8Z" fill="white"/>
</clipPath>
</defs>
</svg>
