<svg width="181" height="69" viewBox="0 0 181 69" fill="none" xmlns="http://www.w3.org/2000/svg">
<path d="M9.71564 6.22656V51.5794H0.65918V6.22656H9.71564Z" fill="#E0E0FF"/>
<path d="M38.523 15.0632C42.7925 15.0632 46.2425 16.4277 48.8732 19.1567C51.5039 21.8423 52.8193 25.6109 52.8193 30.4624V51.5794H43.7628V31.6969C43.7628 28.838 43.0512 26.6505 41.6281 25.1344C40.2049 23.575 38.2642 22.7953 35.806 22.7953C33.3047 22.7953 31.3209 23.575 29.8547 25.1344C28.4315 26.6505 27.7199 28.838 27.7199 31.6969V51.5794H18.6635V15.583H27.7199V20.0663C28.9274 18.5069 30.4584 17.294 32.3128 16.4277C34.2104 15.518 36.2804 15.0632 38.523 15.0632Z" fill="#E0E0FF"/>
<path d="M69.7117 44.1072H85.6899V51.5794H59.4261V44.2372L75.0809 23.0552H59.4908V15.583H85.4958V22.9252L69.7117 44.1072Z" fill="#E0E0FF"/>
<path d="M97.295 11.2946C95.6993 11.2946 94.3624 10.7965 93.2843 9.8002C92.2492 8.76059 91.7317 7.48274 91.7317 5.96665C91.7317 4.45056 92.2492 3.19437 93.2843 2.19808C94.3624 1.15847 95.6993 0.638672 97.295 0.638672C98.8907 0.638672 100.206 1.15847 101.241 2.19808C102.319 3.19437 102.858 4.45056 102.858 5.96665C102.858 7.48274 102.319 8.76059 101.241 9.8002C100.206 10.7965 98.8907 11.2946 97.295 11.2946ZM101.759 15.583V51.5794H92.7021V15.583H101.759Z" fill="#E0E0FF"/>
<path d="M119.763 3.49759V51.5794H110.706V3.49759H119.763Z" fill="#E0E0FF"/>
<path d="M137.767 3.49759V51.5794H128.711V3.49759H137.767Z" fill="#E0E0FF"/>
<path d="M181 15.583L158.812 68.6029H149.173L156.936 50.6697L142.575 15.583H152.731L161.981 40.7285L171.361 15.583H181Z" fill="#E0E0FF"/>
</svg>
