<svg width="104" height="104" viewBox="0 0 104 104" fill="none" xmlns="http://www.w3.org/2000/svg">
<path d="M0 20.3128V83.6872C0 94.9073 9.05264 104 20.2233 104H83.3184C94.4891 104 103.542 94.9073 103.542 83.6872V20.3128C103.542 9.09269 94.4891 0 83.3184 0H20.2233C9.05264 0 0 9.09269 0 20.3128Z" fill="url(#paint0_linear_4898_25793)"/>
<mask id="mask0_4898_25793" style="mask-type:luminance" maskUnits="userSpaceOnUse" x="0" y="0" width="104" height="104">
<path d="M0 20.3128V83.6872C0 94.9073 9.05264 104 20.2233 104H83.3184C94.4891 104 103.542 94.9073 103.542 83.6872V20.3128C103.542 9.09269 94.4891 0 83.3184 0H20.2233C9.05264 0 0 9.09269 0 20.3128Z" fill="white"/>
</mask>
<g mask="url(#mask0_4898_25793)">
<path d="M49.3625 75.075L48.5084 57.919H45.5023L43.8967 49.9929L50.6947 44.5715L63.8467 44.5372L62.6169 57.9876H58.9617L57.5611 74.9034H109.998V42.4785H-5.39746L-2.90372 75.075" fill="url(#paint1_linear_4898_25793)"/>
</g>
<path opacity="0.8" d="M0 20.3128V83.6872C0 94.9073 9.05264 104 20.2233 104H83.3184C94.4891 104 103.542 94.9073 103.542 83.6872V20.3128C103.542 9.09269 94.4891 0 83.3184 0H20.2233C9.05264 0 0 9.09269 0 20.3128Z" fill="url(#paint2_linear_4898_25793)"/>
<path d="M67.0235 61.5905C66.2037 61.7621 65.3155 61.7621 64.4273 61.7964C63.5049 61.8307 62.5826 61.7621 61.6603 61.7621C60.6696 61.7621 60.328 62.0023 60.0205 62.963C58.21 68.9333 61.2845 74.9036 61.2503 75.1095V71.7469C61.2503 68.2127 62.9584 64.8845 65.8279 62.86C66.4769 62.414 67.0918 61.9336 67.6726 61.4189C67.4676 61.4533 67.2627 61.5219 67.0235 61.5905Z" fill="white"/>
<path d="M60.9079 76.7568H42.5977V79.6391H60.9079V76.7568Z" fill="white"/>
<path d="M28.0114 48.0711H37.5765C37.0299 46.9388 36.6883 45.7722 36.5175 44.5713H27.499C27.6015 45.7722 27.7723 46.9388 28.0114 48.0711Z" fill="white"/>
<path d="M76.0417 42.9247C76.0417 29.2685 64.8369 18.22 51.1725 18.5288C38.4647 18.8376 28.1481 29.0969 27.499 41.6895H36.415C36.415 41.6208 36.415 41.5865 36.415 41.5179C36.5175 39.7337 36.7566 37.9837 37.4398 36.3024C38.8063 32.9399 41.2317 30.641 44.5111 29.1655C47.2099 27.9646 50.0794 27.5185 53.0172 27.6558C55.7501 27.793 58.3805 28.4107 60.8401 29.7145C63.6754 31.2243 65.5884 33.4889 66.5108 36.5769C66.8182 37.6406 67.0915 38.7043 66.989 39.8366C66.9207 40.5228 67.2623 41.1061 67.6381 41.6208C68.6971 42.9933 69.7561 44.3315 70.7467 45.704C71.0883 46.1843 71.3616 46.7676 71.5666 47.351C71.7716 47.8999 71.5324 48.3803 71.02 48.6548C70.5759 48.895 70.0977 49.1009 69.6194 49.2038C68.8337 49.4097 68.7312 49.89 68.9362 50.6106C69.0045 50.8508 69.1412 51.1253 69.312 51.2968C69.961 52.086 69.5511 52.8752 68.7996 53.2183C68.9362 53.4242 69.1412 53.5957 69.2437 53.8359C69.4828 54.2134 69.4144 54.5908 69.107 54.8653C68.4579 55.4829 68.3555 56.2378 68.5604 57.0613C68.6629 57.4044 68.7654 57.7818 68.8679 58.1249C69.1753 58.9141 69.107 59.6347 68.7996 60.218C73.2746 55.8604 76.0417 49.7185 76.0417 42.9247Z" fill="white"/>
<path d="M39.3184 50.9541H28.8311C30.6757 56.2039 34.2285 60.6301 38.8402 63.5466C39.4551 63.9241 40.0358 64.3701 40.5482 64.8505C40.5824 64.6789 40.6166 64.4731 40.6507 64.3015C41.0948 61.8996 41.4706 59.4635 41.5731 56.993C41.6414 55.2431 41.1631 53.6647 40.1725 52.2236C39.8992 51.8462 39.5917 51.4002 39.3184 50.9541Z" fill="white"/>
<path d="M60.9079 82.624H42.5977V85.5062H60.9079V82.624Z" fill="white"/>
<defs>
<linearGradient id="paint0_linear_4898_25793" x1="99.2725" y1="4.31101" x2="5.82948" y2="97.3422" gradientUnits="userSpaceOnUse">
<stop stop-color="#5960D7"/>
<stop offset="1" stop-color="#070C54"/>
</linearGradient>
<linearGradient id="paint1_linear_4898_25793" x1="52.2884" y1="39.9111" x2="52.2884" y2="75.3824" gradientUnits="userSpaceOnUse">
<stop stop-color="#7167E4"/>
<stop offset="0.2006" stop-color="#6878E8"/>
<stop offset="0.5991" stop-color="#51A5F1"/>
<stop offset="1" stop-color="#36D8FC"/>
</linearGradient>
<linearGradient id="paint2_linear_4898_25793" x1="99.2725" y1="4.31101" x2="5.82948" y2="97.3422" gradientUnits="userSpaceOnUse">
<stop stop-color="#5960D7"/>
<stop offset="1" stop-color="#070C54"/>
</linearGradient>
</defs>
</svg>
