<svg width="24" height="24" viewBox="0 0 24 24" fill="none" xmlns="http://www.w3.org/2000/svg">
<path d="M7 21C8.65685 21 10 19.6569 10 18C10 16.3431 8.65685 15 7 15C5.34315 15 4 16.3431 4 18C4 19.6569 5.34315 21 7 21Z" stroke="white" stroke-width="1.5"/>
<path d="M17.5 18C18.8807 18 20 16.8807 20 15.5C20 14.1193 18.8807 13 17.5 13C16.1193 13 15 14.1193 15 15.5C15 16.8807 16.1193 18 17.5 18Z" stroke="white" stroke-width="1.5"/>
<path d="M10 18V7.42431C10 6.57508 10 6.15047 10.2395 5.88664C10.479 5.62282 10.925 5.58432 11.8169 5.50734C15.4745 5.19166 18.0991 3.98495 19.4139 3.20302C19.6825 3.04321 19.8169 2.96331 19.9085 3.01628C20 3.06926 20 3.223 20 3.53049V15.7009" stroke="white" stroke-width="1.5" stroke-linecap="round" stroke-linejoin="round"/>
<path d="M10 10.0947C15.3334 10.0947 18.8889 8.53917 20 8.09473" stroke="white" stroke-width="1.5" stroke-linecap="round" stroke-linejoin="round"/>
</svg>
