<svg width="229" height="58" viewBox="0 0 229 58" fill="none" xmlns="http://www.w3.org/2000/svg">
<g clip-path="url(#clip0_4744_52658)">
<mask id="path-1-inside-1_4744_52658" fill="white">
<path d="M0 8C0 3.58172 3.58172 0 8 0H221C225.418 0 229 3.58172 229 8V50C229 54.4183 225.418 58 221 58H8.00001C3.58173 58 0 54.4183 0 50V8Z"/>
</mask>
<path d="M0 8C0 3.58172 3.58172 0 8 0H221C225.418 0 229 3.58172 229 8V50C229 54.4183 225.418 58 221 58H8.00001C3.58173 58 0 54.4183 0 50V8Z" fill="#006E2C"/>
<path d="M0 0H229L0 58V0Z" fill="#21A64B"/>
</g>
<path d="M0 0H229H0ZM229 50C229 56.0751 224.075 61 218 61H11C4.92487 61 0 56.0751 0 50C0 52.7614 3.58172 55 8 55H221C225.418 55 229 52.7614 229 50ZM0 58V0V58ZM229 0V58V0Z" fill="#004619" mask="url(#path-1-inside-1_4744_52658)"/>
<defs>
<clipPath id="clip0_4744_52658">
<path d="M0 8C0 3.58172 3.58172 0 8 0H221C225.418 0 229 3.58172 229 8V50C229 54.4183 225.418 58 221 58H8.00001C3.58173 58 0 54.4183 0 50V8Z" fill="white"/>
</clipPath>
</defs>
</svg>
