<svg width="34" height="32" viewBox="0 0 34 32" fill="none" xmlns="http://www.w3.org/2000/svg">
<path opacity="0.22" d="M33.0812 22.2929L32.8289 14.3118L32.7754 14.2812C32.6684 14.006 32.3167 13.1804 31.407 12.5994C30.482 12.0031 29.5569 12.0413 29.2664 12.0642C26.8431 10.7799 24.4197 9.48795 21.9963 8.20364L17.9828 5.94079L11.1102 2.06491C11.0032 1.91202 10.8961 1.75148 10.7891 1.59858C10.5598 1.26986 10.1087 1.39217 9.97112 1.65974L3.30491 5.4286C3.27433 5.39802 3.24375 5.36744 3.21317 5.3445C2.80035 4.94698 2.16584 5.57385 2.57866 5.97902C2.69333 6.08604 2.808 6.20071 2.92267 6.30774C4.81092 18.0883 5.36899 22.9962 5.41485 24.9533C5.45308 26.7804 6.23284 28.5539 6.25578 30.381C6.25578 30.6562 6.25578 31.4284 6.75268 31.7953C7.08141 32.0399 7.50187 32.017 7.77708 31.9711C8.12874 31.8488 8.48804 31.7189 8.8397 31.5965C16.622 28.6915 24.412 25.7789 32.1944 22.8739C32.4925 22.6828 32.7907 22.484 33.0812 22.2929Z" fill="#035D6B"/>
<path d="M32.2402 17.4537C32.2096 16.5898 32.1867 15.7336 32.1561 14.8698C32.1408 14.4646 32.1179 14.0671 32.1179 13.6619C32.1179 13.3561 32.1255 13.058 31.8885 12.821C31.6898 12.6299 31.3993 12.5152 31.1623 12.3852C30.8106 12.1865 30.459 11.9877 30.1073 11.7889C29.3734 11.3761 28.6395 10.9557 27.898 10.5428C24.9548 8.88394 22.0115 7.22503 19.076 5.56612C16.1557 3.92251 13.266 2.21773 10.3304 0.612333C9.81053 0.329478 9.17602 -0.198009 8.56444 0.0772012C7.84583 0.39828 7.16545 0.856965 6.48507 1.2392C5.03257 2.05719 3.58771 2.86753 2.14286 3.68552C1.60772 3.98366 0.82796 4.25123 0.927342 4.99277C1.03437 5.8184 1.24078 6.64403 1.39367 7.45437C1.70711 9.12093 2.02818 10.7875 2.34162 12.4617C2.97613 15.8254 3.61065 19.1814 4.2528 22.5451C4.56624 24.204 4.87967 25.8706 5.19311 27.5295C5.35365 28.3704 5.51419 29.2037 5.66708 30.0446C5.77411 30.595 5.74353 31.627 6.46213 31.7417C6.7985 31.7952 7.16545 31.5735 7.47124 31.4589C7.87641 31.306 8.28158 31.1607 8.67911 31.0078C9.45887 30.7173 10.2463 30.4268 11.026 30.1287C12.6391 29.5247 14.2521 28.9208 15.8652 28.3245C19.0454 27.1396 22.2256 25.947 25.4058 24.7621C27.0035 24.1658 28.6089 23.5695 30.2067 22.9656C30.5813 22.8279 30.9559 22.6827 31.3381 22.5451C31.621 22.4381 31.9421 22.354 32.1637 22.1476C32.4084 21.9106 32.3625 21.5971 32.3549 21.2914C32.3396 20.8403 32.3243 20.3893 32.309 19.9382C32.2861 19.1126 32.2631 18.2793 32.2402 17.4537C32.2249 16.9644 31.4604 16.9644 31.4757 17.4537C31.4987 18.2564 31.5292 19.0591 31.5522 19.8618C31.5675 20.2364 31.5751 20.611 31.5904 20.9856C31.598 21.1461 31.6439 21.3525 31.6057 21.5131C31.5675 21.7118 31.3993 21.7118 31.2158 21.7806C29.7327 22.331 28.2573 22.8891 26.7742 23.4395C23.808 24.548 20.8495 25.6565 17.8834 26.7573C14.8943 27.8735 11.9052 28.9896 8.91609 30.1057C8.18984 30.3809 7.41773 30.6103 6.70676 30.9314C6.64561 30.962 6.53858 30.9467 6.60738 30.9849C6.65325 31.0078 6.6609 31.2295 6.60738 30.8779C6.5768 30.702 6.53858 30.5338 6.508 30.358C6.43155 29.9376 6.34746 29.5171 6.27101 29.0966C5.98051 27.5677 5.69001 26.0311 5.39951 24.5021C4.21458 18.264 3.02965 12.0106 1.85236 5.76489C1.82178 5.58906 1.78355 5.41323 1.75297 5.24504C1.71475 5.02335 1.64595 4.90868 1.81413 4.75578C2.06641 4.52644 2.48687 4.37355 2.79266 4.20536C3.48068 3.81548 4.17636 3.4256 4.86438 3.03572C5.52948 2.66112 6.20221 2.28653 6.8673 1.90429C7.18074 1.72846 7.49417 1.55264 7.80761 1.37681C8.12869 1.19333 8.45741 0.948702 8.79378 0.818741C8.96961 0.749938 9.0537 0.788162 9.21424 0.879899C9.36713 0.963991 9.52767 1.05573 9.68057 1.13982C10.0246 1.33094 10.3686 1.51441 10.7126 1.70553C11.3777 2.08012 12.0351 2.45472 12.7002 2.83695C14.0534 3.61672 15.4065 4.38883 16.7672 5.15331C19.5423 6.72048 22.3173 8.28001 25.0924 9.84718C26.4378 10.604 27.7833 11.3685 29.1288 12.1253C29.7786 12.4923 30.4284 12.8745 31.0935 13.2262C31.1852 13.2797 31.3152 13.3102 31.3458 13.4096C31.384 13.509 31.3534 13.7078 31.3534 13.8148C31.3611 14.2429 31.384 14.671 31.3916 15.0991C31.4146 15.8865 31.4375 16.6663 31.4681 17.4537C31.491 17.9506 32.2555 17.9506 32.2402 17.4537Z" fill="black"/>
<path d="M31.4682 21.6141C31.537 21.6293 31.6134 21.6523 31.6822 21.6676L31.4223 13.3272L8.93912 0.644531L1.67662 4.74211C1.68427 4.78033 1.69956 4.8262 1.7072 4.87972L1.59253 4.81856C3.25144 13.5641 4.9027 22.3097 6.56161 31.0553L6.73744 30.7724L6.58454 31.0706C14.9173 27.9592 23.2501 24.8478 31.5828 21.7364L31.4147 21.637C31.4299 21.6217 31.4529 21.6217 31.4682 21.6141Z" fill="#B90C39"/>
<path d="M31.4682 21.6141C31.537 21.6293 31.6134 21.6523 31.6822 21.6676L31.4223 13.3272L8.93912 0.644531L1.67662 4.74211C1.68427 4.78033 1.69956 4.8262 1.7072 4.87972L1.59253 4.81856C3.25144 13.5641 4.9027 22.3097 6.56161 31.0553L6.73744 30.7724L6.58454 31.0706C14.9173 27.9592 23.2501 24.8478 31.5828 21.7364L31.4147 21.637C31.4299 21.6217 31.4529 21.6217 31.4682 21.6141Z" fill="url(#paint0_linear_4777_64332)"/>
<path d="M15.7124 21.1995C12.0506 19.5559 8.68692 16.5668 8.46523 12.4539C8.427 11.8653 8.38878 11.2537 8.38114 10.6421L7.79249 10.3134L7.83836 10.2752L7.66253 10.1758C7.4179 17.0713 7.18091 23.9592 6.93628 30.8548C6.94392 30.8548 6.95157 30.8472 6.95157 30.8472C8.78631 29.28 10.6898 27.881 12.8227 26.5814C16.6986 24.3262 20.4522 22.2698 23.8082 19.4641L23.5559 19.3189C21.4383 21.2759 18.6174 22.4532 15.7124 21.1995Z" fill="url(#paint1_linear_4777_64332)"/>
<path d="M8.38086 10.6445C8.3885 11.2638 8.41908 11.8677 8.46495 12.4563C8.68665 16.5692 12.0503 19.5583 15.7122 21.2019C18.6172 22.4557 21.4381 21.2784 23.571 19.3213L13.6022 13.5878L8.38086 10.6445Z" fill="url(#paint2_linear_4777_64332)"/>
<path d="M31.598 21.4832C31.6133 21.4756 31.6362 21.4679 31.6515 21.4679L24.2208 19.6561L24.0908 19.6256L23.9532 19.5491L23.8156 19.4727C20.4519 22.2706 16.706 24.3271 12.8301 26.5899C10.7049 27.8742 8.79372 29.2809 6.95898 30.8404C15.2306 27.7519 23.5022 24.6634 31.7662 21.575L31.598 21.4832Z" fill="url(#paint3_linear_4777_64332)"/>
<path d="M7.47898 9.98496L7.41782 9.95438L1.67662 4.4043C1.68427 4.44252 1.69956 4.48839 1.7072 4.5419L1.59253 4.48074C3.25144 13.2263 4.9027 21.9719 6.56161 30.7175L6.73744 30.4346L6.58454 30.7328C6.6457 30.7098 6.69922 30.6869 6.76037 30.6716C6.88269 30.5111 6.98972 30.3505 7.06616 30.1747C7.04323 30.19 7.02794 30.1976 7.005 30.2129C7.1579 23.4626 7.31844 16.7276 7.47898 9.98496Z" fill="url(#paint4_linear_4777_64332)"/>
<path d="M12.624 5.58203C10.8887 7.05747 9.15332 8.52526 7.41797 10.0007C12.8457 13.1197 18.2735 16.2464 23.7013 19.3655C24.0835 17.0721 24.4657 14.7787 24.8556 12.4776L12.624 5.58203Z" fill="url(#paint5_linear_4777_64332)"/>
<g style="mix-blend-mode:screen">
<path d="M13.0519 7.03516C11.8594 8.08249 10.6591 9.12982 9.46655 10.1771C10.5521 9.67259 12.0811 9.16039 13.9005 9.20626C16.7826 9.27506 18.9231 10.7046 18.9843 10.5823C19.0301 10.4906 17.914 9.75668 13.0519 7.03516Z" fill="url(#paint6_linear_4777_64332)"/>
</g>
<path d="M30.8795 14.2123C29.2741 14.1741 27.6687 14.1359 26.0557 14.0977C27.6228 16.1159 29.1977 18.1341 30.7648 20.1523C30.803 18.1723 30.8413 16.1923 30.8795 14.2123Z" fill="url(#paint7_linear_4777_64332)"/>
<path d="M24.8706 12.7461L25.1917 12.9219C24.8095 15.2153 24.4272 17.5088 24.0374 19.8098C24.0603 19.8251 24.0756 19.8328 24.0985 19.8481L31.6592 21.6904C31.728 21.7057 31.8044 21.7287 31.8732 21.744L31.6133 13.4035L31.5598 13.373C29.2893 13.4265 27.08 13.373 24.8706 12.7461Z" fill="url(#paint8_linear_4777_64332)"/>
<path d="M9.35205 0.849609C9.48201 1.05602 9.61962 1.26243 9.77251 1.46883C10.881 3.12774 12.043 4.55731 13.0521 6.07861L19.0914 9.48052C18.304 8.00509 17.4937 6.5373 16.7674 5.02364L9.35205 0.849609Z" fill="url(#paint9_linear_4777_64332)"/>
<path d="M31.552 13.3725L20.7805 7.29492C21.5373 8.73978 22.2483 10.1846 22.921 11.6524L24.8705 12.7533C27.0798 13.3725 29.2891 13.426 31.552 13.3725Z" fill="url(#paint10_linear_4777_64332)"/>
<path d="M16.7673 5.03125C17.4936 6.54491 18.3039 8.0127 19.0913 9.48813L22.9213 11.6516C22.2486 10.1914 21.53 8.73895 20.7808 7.29409L16.7673 5.03125Z" fill="url(#paint11_linear_4777_64332)"/>
<path d="M9.35195 0.850664L9.12261 0.720703L1.86011 4.81828C3.79423 6.67595 5.72835 8.54127 7.67011 10.3989C7.70069 10.4142 7.72362 10.4295 7.7542 10.4448C9.48956 8.96938 11.2249 7.50159 12.9603 6.02615L13.052 6.07967C12.0429 4.55836 10.8809 3.1288 9.77241 1.46989C9.61952 1.26348 9.48191 1.05707 9.35195 0.850664Z" fill="url(#paint12_linear_4777_64332)"/>
<g style="mix-blend-mode:screen">
<path d="M3.52661 4.9093C5.58305 4.38946 7.63948 3.86197 9.68827 3.34213C9.27546 2.92932 8.86264 2.5165 8.45747 2.11133C6.81385 3.03634 5.17023 3.97664 3.52661 4.9093Z" fill="url(#paint13_linear_4777_64332)"/>
</g>
<g style="mix-blend-mode:screen">
<path d="M3.07568 7.59961L6.21767 14.5487L6.103 22.3922L3.07568 7.59961Z" fill="url(#paint14_linear_4777_64332)"/>
</g>
<path d="M13.1665 27.6606C15.6358 26.2005 18.0974 24.748 20.5666 23.2878C23.0359 22.9132 25.4975 22.5387 27.9667 22.1641C23.0282 23.9988 18.0974 25.8335 13.1665 27.6606Z" fill="url(#paint15_linear_4777_64332)"/>
<path d="M7.05786 30.4588C7.06551 30.4588 7.07315 30.4512 7.0808 30.4512C7.07315 30.4512 7.06551 30.4512 7.05786 30.4588Z" fill="url(#paint16_linear_4777_64332)"/>
<path d="M7.6084 10.4581L13.4108 13.7301L7.65427 10.4199L7.6084 10.4581Z" fill="url(#paint17_linear_4777_64332)"/>
<path d="M23.7313 19.4406C19.3356 22.2156 14.9399 24.9906 10.5441 27.7733C9.29039 28.5607 8.02901 29.3558 6.77527 30.1508C6.99697 30.2808 7.22631 30.4108 7.44801 30.5407C7.57033 25.2735 7.70029 20.0063 7.8226 14.739C7.86083 13.2483 7.8914 11.7576 7.92963 10.2669C7.94492 9.68587 7.04284 9.69352 7.03519 10.2669C6.91288 15.5341 6.78292 20.8013 6.6606 26.0686C6.62238 27.5593 6.5918 29.05 6.55358 30.5407C6.54593 30.8771 6.94346 31.1064 7.22631 30.9306C11.622 28.1556 16.0178 25.3805 20.4135 22.5978C21.6672 21.8028 22.9286 21.0077 24.1823 20.2203C24.6716 19.9069 24.2206 19.1271 23.7313 19.4406Z" fill="#F33A4A"/>
<path d="M1.35571 5.05439C3.15987 6.78974 4.95639 8.53274 6.76054 10.2681C7.08927 10.5892 7.39506 10.7803 7.79258 11.0096C8.73289 11.5524 9.68083 12.0952 10.6211 12.638C13.442 14.2587 16.263 15.887 19.0839 17.5077C20.2 18.1498 21.3161 18.792 22.4399 19.4341C22.8757 19.6864 23.3267 20.0381 23.8083 20.1986C24.1447 20.3133 24.5116 20.3744 24.8633 20.4585C25.6048 20.642 26.3387 20.8178 27.0803 21.0013C28.4257 21.33 29.7712 21.6588 31.1167 21.9875C31.2008 22.0104 31.2849 22.0257 31.3613 22.0486C31.9194 22.1863 32.164 21.3224 31.5983 21.1848C29.1979 20.5961 26.7974 20.0151 24.3893 19.4265C24.2823 19.4036 24.16 19.3501 24.0453 19.3424C24.1217 19.3501 24.1753 19.4112 24.0682 19.3424C23.8542 19.2048 23.6248 19.0901 23.4108 18.9602C22.4323 18.3945 21.4537 17.8364 20.4752 17.2707C17.6543 15.65 14.841 14.0293 12.0201 12.4086C10.9422 11.7894 9.85666 11.1625 8.77876 10.5433C8.48061 10.3751 8.18247 10.1993 7.88432 10.0311C7.82316 9.99289 7.75436 9.93938 7.68556 9.91644C7.58618 9.88586 7.79258 10.0311 7.70085 9.92409C7.42564 9.60301 7.08162 9.32015 6.77583 9.02965C6.21777 8.49452 5.66735 7.95939 5.10928 7.42426C4.12311 6.48395 3.14458 5.53601 2.16606 4.5957L1.35571 5.05439Z" fill="#FF4450"/>
<path d="M8.79336 1.1405C9.91714 2.76118 11.0409 4.38187 12.157 6.00255C12.4858 6.47653 13.2579 6.02549 12.9292 5.55151C11.8054 3.93083 10.6816 2.31015 9.56548 0.68946C9.2444 0.215486 8.46464 0.666526 8.79336 1.1405Z" fill="#FF4450"/>
<path d="M31.0478 12.8896C29.0831 12.7673 27.1184 12.645 25.1461 12.5227C24.5727 12.4844 24.5727 13.3865 25.1461 13.4171C27.1108 13.5394 29.0755 13.6617 31.0478 13.784C31.6212 13.8223 31.6212 12.9278 31.0478 12.8896Z" fill="#FF4450"/>
<path d="M31.9879 21.6672C31.942 20.2682 31.8962 18.8616 31.858 17.4626C31.8274 16.4993 31.7968 15.5361 31.7662 14.5805C31.7586 14.2824 31.7509 13.9766 31.7356 13.6784C31.728 13.5485 31.7509 13.3803 31.7127 13.258C31.6515 13.0668 31.3763 12.9675 31.2158 12.8757C30.8489 12.6693 30.4743 12.4629 30.1073 12.2489C28.8077 11.515 27.5081 10.7811 26.2161 10.0548C22.6919 8.06719 19.1677 6.07956 15.6435 4.09192C13.4876 2.87641 11.3548 1.59974 9.16837 0.437738C8.90845 0.300132 8.72498 0.430093 8.48799 0.560054C7.8229 0.934646 7.15016 1.30924 6.48507 1.68383C4.93319 2.55533 3.37366 3.43448 1.81413 4.30598C1.71475 4.35949 1.61537 4.42065 1.51599 4.47416C1.47776 4.49709 1.44718 4.52767 1.42425 4.55825C1.32487 4.62705 1.26371 4.75702 1.29429 4.89462C2.58625 11.7137 3.87821 18.5405 5.17017 25.3596C5.53712 27.2861 5.89642 29.2049 6.26337 31.1314C6.27866 31.2231 6.33982 31.2919 6.41627 31.3225C6.48507 31.376 6.56916 31.3989 6.66854 31.3607C13.1666 28.9297 19.6722 26.5063 26.1703 24.0753C28.005 23.3872 29.8397 22.7069 31.6668 22.0188C31.7127 22.0035 31.7509 21.9806 31.7815 21.95C31.8962 21.9118 31.9956 21.8048 31.9879 21.6672ZM12.0046 28.7156C10.3304 29.3425 8.65617 29.9694 6.97433 30.5962C6.92082 30.5274 6.84437 30.4816 6.76028 30.4663C5.4989 23.8077 4.24516 17.1568 2.98378 10.4982C2.63976 8.67877 2.29575 6.86696 1.95174 5.04752C1.98232 5.00165 2.00525 4.95578 2.01289 4.90227C4.07697 3.74026 6.14106 2.57826 8.20513 1.41626C8.44977 1.27866 8.70204 1.14105 8.94667 0.995804C11.4312 2.39479 13.9158 3.80142 16.4003 5.20041C20.4367 7.47854 24.4731 9.75667 28.5096 12.0348C29.3811 12.5241 30.2526 13.021 31.1241 13.5102C31.2005 15.8878 31.277 18.2653 31.3458 20.6428C31.3534 20.8721 31.361 21.1015 31.3687 21.3308C31.3687 21.3385 31.3152 21.4684 31.3152 21.4684C31.3152 21.4684 31.1929 21.5984 31.1241 21.5831C24.7484 23.953 18.3726 26.3381 12.0046 28.7156Z" fill="black"/>
<path d="M24.1518 19.2802C22.317 18.2482 20.4823 17.2085 18.6399 16.1765C15.712 14.5252 12.7841 12.874 9.85612 11.2227C9.18338 10.8405 8.503 10.4582 7.83026 10.0836C7.86084 10.3206 7.89142 10.55 7.922 10.7869C9.42801 9.47204 10.934 8.15715 12.44 6.84225C12.6541 6.65113 12.8681 6.46766 13.0822 6.27654C12.8987 6.29948 12.7229 6.32241 12.5394 6.34535C13.9155 7.12511 15.2915 7.89723 16.6676 8.67699C18.8616 9.91544 21.0557 11.1539 23.2497 12.3923C23.7543 12.6752 24.2588 12.958 24.7634 13.2485C24.6946 13.0804 24.6258 12.9122 24.557 12.744C24.2435 14.724 23.9377 16.7116 23.6243 18.6916C23.5784 18.9821 23.5326 19.265 23.4867 19.5555C23.395 20.1212 24.2588 20.3658 24.3505 19.7924C24.664 17.8125 24.9698 15.8248 25.2832 13.8448C25.3291 13.5543 25.3749 13.2715 25.4208 12.981C25.4514 12.7822 25.3979 12.5758 25.2144 12.4764C23.8383 11.6967 22.4623 10.9245 21.0862 10.1448C18.8922 8.90633 16.6982 7.66789 14.5041 6.42944C13.9996 6.14658 13.495 5.86373 12.9905 5.57323C12.807 5.4662 12.6006 5.51207 12.4477 5.64203C10.9417 6.95692 9.43566 8.27182 7.92964 9.58672C7.71559 9.77783 7.50154 9.96131 7.28749 10.1524C7.07343 10.3435 7.14224 10.7258 7.37922 10.8557C9.21396 11.8878 11.0487 12.9275 12.8911 13.9595C15.819 15.6108 18.747 17.262 21.6749 18.9133C22.3476 19.2955 23.028 19.6778 23.7007 20.0524C24.2053 20.3352 24.6563 19.5631 24.1518 19.2802Z" fill="#FF4450"/>
<path d="M20.0466 9.76367L24.8705 12.7451L24.1519 19.2814L25.4285 12.9668L30.1377 13.2803L25.2221 12.4623L20.0466 9.76367Z" fill="#FFCBB8"/>
<path d="M2.48657 5.42969L7.03519 10.2688L6.96639 28.1499L7.60855 10.4599L16.3083 15.6736L7.83789 10.0777L11.9737 6.77516L7.41743 9.95537L2.48657 5.42969Z" fill="#FFCBB8"/>
<defs>
<linearGradient id="paint0_linear_4777_64332" x1="20.5417" y1="3.97293" x2="13.0313" y2="21.7961" gradientUnits="userSpaceOnUse">
<stop stop-color="#ED223E"/>
<stop offset="0.0896271" stop-color="#ED223E"/>
<stop offset="1" stop-color="#ED223E"/>
</linearGradient>
<linearGradient id="paint1_linear_4777_64332" x1="15.0821" y1="16.2903" x2="6.26354" y2="35.8707" gradientUnits="userSpaceOnUse">
<stop stop-color="#ED223E"/>
<stop offset="0.1623" stop-color="#DD1B36"/>
<stop offset="0.4043" stop-color="#CC132D"/>
<stop offset="0.6696" stop-color="#C20E28"/>
<stop offset="1" stop-color="#BF0D26"/>
</linearGradient>
<linearGradient id="paint2_linear_4777_64332" x1="15.9605" y1="15.0172" x2="12.9138" y2="21.7818" gradientUnits="userSpaceOnUse">
<stop stop-color="#ED223E"/>
<stop offset="0.1623" stop-color="#DD1B36"/>
<stop offset="0.4043" stop-color="#CC132D"/>
<stop offset="0.6696" stop-color="#C20E28"/>
<stop offset="1" stop-color="#BF0D26"/>
</linearGradient>
<linearGradient id="paint3_linear_4777_64332" x1="19.2571" y1="25.6411" x2="17.1645" y2="14.7299" gradientUnits="userSpaceOnUse">
<stop stop-color="#ED3748"/>
<stop offset="0.0896271" stop-color="#ED3748"/>
<stop offset="1" stop-color="#ED3748"/>
</linearGradient>
<linearGradient id="paint4_linear_4777_64332" x1="7.10416" y1="15.3934" x2="10.1307" y2="13.1515" gradientUnits="userSpaceOnUse">
<stop stop-color="#ED223E"/>
<stop offset="0.0896271" stop-color="#ED223E"/>
<stop offset="1" stop-color="#ED223E"/>
</linearGradient>
<linearGradient id="paint5_linear_4777_64332" x1="17.2844" y1="11.4844" x2="15.0425" y2="15.632" gradientUnits="userSpaceOnUse">
<stop stop-color="#ED223E"/>
<stop offset="0.0896271" stop-color="#ED223E"/>
<stop offset="1" stop-color="#ED223E"/>
</linearGradient>
<linearGradient id="paint6_linear_4777_64332" x1="29.3945" y1="23.3266" x2="2.99326" y2="0.762661" gradientUnits="userSpaceOnUse">
<stop stop-color="#D13E13"/>
<stop offset="0.115" stop-color="#C13912"/>
<stop offset="0.34" stop-color="#972D0E"/>
<stop offset="0.6531" stop-color="#531908"/>
<stop offset="1"/>
</linearGradient>
<linearGradient id="paint7_linear_4777_64332" x1="31.6058" y1="17.8524" x2="16.1798" y2="4.66853" gradientUnits="userSpaceOnUse">
<stop stop-color="#D13E13"/>
<stop offset="0.115" stop-color="#C13912"/>
<stop offset="0.34" stop-color="#972D0E"/>
<stop offset="0.6531" stop-color="#531908"/>
<stop offset="1"/>
</linearGradient>
<linearGradient id="paint8_linear_4777_64332" x1="26.9372" y1="14.317" x2="30.9728" y2="24.7798" gradientUnits="userSpaceOnUse">
<stop stop-color="#ED2A38"/>
<stop offset="0.0896271" stop-color="#ED2A38"/>
<stop offset="1" stop-color="#ED2A38"/>
</linearGradient>
<linearGradient id="paint9_linear_4777_64332" x1="15.7618" y1="2.19631" x2="11.9981" y2="9.44499" gradientUnits="userSpaceOnUse">
<stop stop-color="#ED223E"/>
<stop offset="0.0896271" stop-color="#ED223E"/>
<stop offset="1" stop-color="#ED223E"/>
</linearGradient>
<linearGradient id="paint10_linear_4777_64332" x1="27.0149" y1="8.69131" x2="23.5165" y2="15.4289" gradientUnits="userSpaceOnUse">
<stop stop-color="#ED223E"/>
<stop offset="0.0896271" stop-color="#ED223E"/>
<stop offset="1" stop-color="#ED223E"/>
</linearGradient>
<linearGradient id="paint11_linear_4777_64332" x1="19.9498" y1="8.67582" x2="22.1918" y2="15.7008" gradientUnits="userSpaceOnUse">
<stop stop-color="#ED223E"/>
<stop offset="0.0896271" stop-color="#ED223E"/>
<stop offset="1" stop-color="#ED223E"/>
</linearGradient>
<linearGradient id="paint12_linear_4777_64332" x1="6.80692" y1="4.2677" x2="11.9633" y2="10.433" gradientUnits="userSpaceOnUse">
<stop stop-color="#ED223E"/>
<stop offset="0.0896271" stop-color="#ED223E"/>
<stop offset="1" stop-color="#ED223E"/>
</linearGradient>
<linearGradient id="paint13_linear_4777_64332" x1="3.52579" y1="3.50665" x2="9.69103" y2="3.50665" gradientUnits="userSpaceOnUse">
<stop stop-color="#D13E13"/>
<stop offset="0.115" stop-color="#C13912"/>
<stop offset="0.34" stop-color="#972D0E"/>
<stop offset="0.6531" stop-color="#531908"/>
<stop offset="1"/>
</linearGradient>
<linearGradient id="paint14_linear_4777_64332" x1="6.3651" y1="16.1973" x2="1.20558" y2="12.7035" gradientUnits="userSpaceOnUse">
<stop stop-color="#D13E13"/>
<stop offset="0.115" stop-color="#C13912"/>
<stop offset="0.34" stop-color="#972D0E"/>
<stop offset="0.6531" stop-color="#531908"/>
<stop offset="1"/>
</linearGradient>
<linearGradient id="paint15_linear_4777_64332" x1="22.0707" y1="25.9376" x2="17.6898" y2="22.9711" gradientUnits="userSpaceOnUse">
<stop stop-color="#D13E13"/>
<stop offset="0.115" stop-color="#C13912"/>
<stop offset="0.34" stop-color="#972D0E"/>
<stop offset="0.6531" stop-color="#531908"/>
<stop offset="1"/>
</linearGradient>
<linearGradient id="paint16_linear_4777_64332" x1="7.07126" y1="30.4461" x2="7.0659" y2="30.4592" gradientUnits="userSpaceOnUse">
<stop stop-color="#ED223E"/>
<stop offset="0.0896271" stop-color="#ED223E"/>
<stop offset="1" stop-color="#ED223E"/>
</linearGradient>
<linearGradient id="paint17_linear_4777_64332" x1="10.4221" y1="12.2761" x2="10.5898" y2="11.9337" gradientUnits="userSpaceOnUse">
<stop stop-color="#ED223E"/>
<stop offset="0.0896271" stop-color="#ED223E"/>
<stop offset="1" stop-color="#ED223E"/>
</linearGradient>
</defs>
</svg>
