<svg width="40" height="40" viewBox="0 0 40 40" fill="none" xmlns="http://www.w3.org/2000/svg">
<g clip-path="url(#clip0_4898_25820)">
<rect width="40" height="40" rx="8" fill="#006E2C"/>
<path opacity="0.5" d="M0 0H40L0 40V0Z" fill="#21A64B"/>
<path d="M29.3175 15.1414L28.8239 14.2848C28.4506 13.637 28.264 13.3131 27.9464 13.1839C27.6288 13.0547 27.2696 13.1566 26.5513 13.3605L25.3311 13.7042C24.8725 13.8099 24.3913 13.7499 23.9726 13.5348L23.6357 13.3404C23.2766 13.1104 23.0004 12.7713 22.8475 12.3727L22.5136 11.3754C22.294 10.7153 22.1842 10.3853 21.9228 10.1966C21.6615 10.0078 21.3143 10.0078 20.6199 10.0078H19.5051C18.8108 10.0078 18.4636 10.0078 18.2022 10.1966C17.9408 10.3853 17.8311 10.7153 17.6115 11.3754L17.2775 12.3727C17.1246 12.7713 16.8484 13.1104 16.4894 13.3404L16.1525 13.5348C15.7337 13.7499 15.2526 13.8099 14.794 13.7042L13.5737 13.3605C12.8554 13.1566 12.4962 13.0547 12.1787 13.1839C11.8611 13.3131 11.6744 13.637 11.3011 14.2848L10.8076 15.1414C10.4577 15.7486 10.2827 16.0523 10.3167 16.3755C10.3506 16.6987 10.5848 16.9592 11.0533 17.4801L12.0843 18.6328C12.3363 18.9518 12.5152 19.5078 12.5152 20.0077C12.5152 20.5078 12.3364 21.0636 12.0843 21.3827L11.0533 22.5354C10.5848 23.0564 10.3506 23.3168 10.3167 23.6401C10.2827 23.9633 10.4577 24.2669 10.8076 24.8741L11.3011 25.7307C11.6744 26.3785 11.8611 26.7025 12.1787 26.8316C12.4962 26.9608 12.8554 26.8589 13.5738 26.655L14.7939 26.3113C15.2526 26.2055 15.7339 26.2656 16.1527 26.4808L16.4895 26.6752C16.8485 26.9052 17.1246 27.2442 17.2775 27.6428L17.6115 28.6403C17.8311 29.3003 17.9408 29.6303 18.2022 29.8191C18.4636 30.0078 18.8108 30.0078 19.5051 30.0078H20.6199C21.3143 30.0078 21.6615 30.0078 21.9228 29.8191C22.1842 29.6303 22.294 29.3003 22.5136 28.6403L22.8476 27.6428C23.0004 27.2442 23.2765 26.9052 23.6356 26.6752L23.9724 26.4808C24.3912 26.2656 24.8724 26.2055 25.3311 26.3113L26.5513 26.655C27.2696 26.8589 27.6288 26.9608 27.9464 26.8316C28.264 26.7025 28.4506 26.3785 28.8239 25.7307L29.3175 24.8741C29.6674 24.2669 29.8423 23.9633 29.8084 23.6401C29.7744 23.3168 29.5402 23.0564 29.0718 22.5354L28.0407 21.3827C27.7887 21.0636 27.6098 20.5078 27.6098 20.0077C27.6098 19.5078 27.7888 18.9518 28.0407 18.6328L29.0718 17.4801C29.5402 16.9592 29.7744 16.6987 29.8084 16.3755C29.8423 16.0523 29.6674 15.7486 29.3175 15.1414Z" stroke="white" stroke-width="1.5" stroke-linecap="round"/>
<path d="M23.5195 20C23.5195 21.933 21.9525 23.5 20.0195 23.5C18.0865 23.5 16.5195 21.933 16.5195 20C16.5195 18.067 18.0865 16.5 20.0195 16.5C21.9525 16.5 23.5195 18.067 23.5195 20Z" stroke="white" stroke-width="1.5"/>
</g>
<defs>
<clipPath id="clip0_4898_25820">
<rect width="40" height="40" rx="8" fill="white"/>
</clipPath>
</defs>
</svg>
