<svg width="94" height="94" viewBox="0 0 94 94" fill="none" xmlns="http://www.w3.org/2000/svg">
<circle cx="47" cy="47" r="47" fill="#B8F1B9" fill-opacity="0.25"/>
<path d="M68 21.25L71.5 17.75M22.5 17.75L26 21.25" stroke="url(#paint0_linear_4672_25045)" stroke-width="3" stroke-linecap="round" stroke-linejoin="round"/>
<path d="M47 14.25V9" stroke="url(#paint1_linear_4672_25045)" stroke-width="3" stroke-linecap="round" stroke-linejoin="round"/>
<path d="M40 9H54" stroke="url(#paint2_linear_4672_25045)" stroke-width="3" stroke-linecap="round" stroke-linejoin="round"/>
<path d="M47 79C64.397 79 78.5 64.897 78.5 47.5C78.5 30.103 64.397 16 47 16C29.603 16 15.5 30.103 15.5 47.5C15.5 64.897 29.603 79 47 79Z" fill="url(#paint3_linear_4672_25045)" stroke="url(#paint4_linear_4672_25045)" stroke-width="3" stroke-linecap="round"/>
<defs>
<linearGradient id="paint0_linear_4672_25045" x1="47" y1="17.75" x2="47" y2="21.25" gradientUnits="userSpaceOnUse">
<stop stop-color="#F2E792"/>
<stop offset="0.456731" stop-color="#F8B133"/>
<stop offset="1" stop-color="#DE712B"/>
</linearGradient>
<linearGradient id="paint1_linear_4672_25045" x1="47.5" y1="9" x2="47.5" y2="14.25" gradientUnits="userSpaceOnUse">
<stop stop-color="#F2E792"/>
<stop offset="0.456731" stop-color="#F8B133"/>
<stop offset="1" stop-color="#DE712B"/>
</linearGradient>
<linearGradient id="paint2_linear_4672_25045" x1="47" y1="9" x2="47" y2="10" gradientUnits="userSpaceOnUse">
<stop stop-color="#F2E792"/>
<stop offset="0.456731" stop-color="#F8B133"/>
<stop offset="1" stop-color="#DE712B"/>
</linearGradient>
<linearGradient id="paint3_linear_4672_25045" x1="47" y1="16" x2="47" y2="79" gradientUnits="userSpaceOnUse">
<stop stop-color="#1D5128"/>
<stop offset="0.490385" stop-color="#14BA37"/>
<stop offset="1" stop-color="#1D5128"/>
</linearGradient>
<linearGradient id="paint4_linear_4672_25045" x1="47" y1="16" x2="47" y2="79" gradientUnits="userSpaceOnUse">
<stop stop-color="#F2E792"/>
<stop offset="0.456731" stop-color="#F8B133"/>
<stop offset="1" stop-color="#DE712B"/>
</linearGradient>
</defs>
</svg>
