<svg width="40" height="40" viewBox="0 0 40 40" fill="none" xmlns="http://www.w3.org/2000/svg">
<g clip-path="url(#clip0_4390_10061)">
<rect width="40" height="40" rx="8" fill="#006E2C"/>
<path opacity="0.5" d="M0 0H40L0 40V0Z" fill="#21A64B"/>
<mask id="mask0_4390_10061" style="mask-type:alpha" maskUnits="userSpaceOnUse" x="8" y="8" width="24" height="24">
<rect x="8" y="8" width="24" height="24" fill="#D9D9D9"/>
</mask>
<g mask="url(#mask0_4390_10061)">
<path d="M20 27.2692C19.5875 27.2692 19.2344 27.1223 18.9408 26.8285C18.6469 26.5348 18.5 26.1817 18.5 25.7692C18.5 25.3567 18.6469 25.0036 18.9408 24.7097C19.2344 24.4161 19.5875 24.2692 20 24.2692C20.4125 24.2692 20.7656 24.4161 21.0592 24.7097C21.3531 25.0036 21.5 25.3567 21.5 25.7692C21.5 26.1817 21.3531 26.5348 21.0592 26.8285C20.7656 27.1223 20.4125 27.2692 20 27.2692ZM20 21.5C19.5875 21.5 19.2344 21.3531 18.9408 21.0592C18.6469 20.7656 18.5 20.4125 18.5 20C18.5 19.5875 18.6469 19.2344 18.9408 18.9407C19.2344 18.6469 19.5875 18.5 20 18.5C20.4125 18.5 20.7656 18.6469 21.0592 18.9407C21.3531 19.2344 21.5 19.5875 21.5 20C21.5 20.4125 21.3531 20.7656 21.0592 21.0592C20.7656 21.3531 20.4125 21.5 20 21.5ZM20 15.7307C19.5875 15.7307 19.2344 15.5839 18.9408 15.2902C18.6469 14.9964 18.5 14.6432 18.5 14.2307C18.5 13.8182 18.6469 13.4652 18.9408 13.1715C19.2344 12.8777 19.5875 12.7307 20 12.7307C20.4125 12.7307 20.7656 12.8777 21.0592 13.1715C21.3531 13.4652 21.5 13.8182 21.5 14.2307C21.5 14.6432 21.3531 14.9964 21.0592 15.2902C20.7656 15.5839 20.4125 15.7307 20 15.7307Z" fill="white"/>
</g>
</g>
<defs>
<clipPath id="clip0_4390_10061">
<rect width="40" height="40" rx="8" fill="white"/>
</clipPath>
</defs>
</svg>
